<svg width="130" height="144" viewBox="0 0 130 144" fill="none" xmlns="http://www.w3.org/2000/svg">
<path fill-rule="evenodd" clip-rule="evenodd" d="M64.84 0C61.6078 0.0281205 58.3844 0.873014 55.5041 2.53468L9.50873 29.0306C3.64431 32.4063 0 38.7117 0 45.4811V64.7219V98.5215C0 105.288 3.64431 111.59 9.50745 114.967L55.4925 141.469C58.4216 143.156 61.7037 144 64.9885 144C68.2771 144 71.5682 143.154 74.5023 141.463L120.5 114.92C126.302 111.568 129.927 105.361 130 98.68V45.26C129.927 38.5686 126.294 32.3565 120.485 29.0127L74.4947 2.52701C71.6143 0.870457 68.3922 0.0281205 65.1676 0H64.84ZM58.2936 108.759L38.0733 97.1103L38.0899 97.0809L16.956 84.9099C9.75441 80.7621 5.27963 73.0277 5.27963 64.7219V45.4811C5.27963 40.5907 7.9105 36.0377 12.146 33.6002L58.1439 7.1017C62.3691 4.66672 67.6245 4.66033 71.8574 7.09659L117.849 33.581C122.088 36.0224 124.72 40.574 124.72 45.4632V62.8774C124.663 62.7956 124.592 62.7241 124.534 62.6423C124.006 61.9137 123.452 61.2017 122.856 60.523C122.812 60.4731 122.765 60.4271 122.72 60.3773C122.145 59.7318 121.534 59.1182 120.899 58.5226C120.778 58.4114 120.661 58.2951 120.537 58.1839C119.88 57.5882 119.189 57.0233 118.469 56.4864C118.324 56.379 118.173 56.2742 118.024 56.1681C117.268 55.6275 116.495 55.1098 115.681 54.6407L74.4639 30.9159C68.62 27.5555 61.3659 27.5606 55.5348 30.9236L33.001 43.9012C27.061 47.3268 23.7929 52.3271 23.5421 58.3679L23.4922 58.6977L23.5447 58.9917C23.8096 65.0172 27.079 69.9983 33.001 73.4073L55.5335 86.3849C61.3646 89.753 68.62 89.7543 74.4588 86.3964L94.3106 75.0434L94.4884 75.1457C98.9862 77.7302 101.22 81.12 101.319 85.3917C101.22 89.7683 98.9888 93.1594 94.4974 95.7554L71.9585 108.756C69.8522 109.972 67.4888 110.58 65.1254 110.58C62.7632 110.58 60.4011 109.973 58.2936 108.759ZM35.6395 68.8403C34.5301 68.2025 33.5589 67.5148 32.7233 66.776C30.2153 64.5596 28.9305 61.8792 28.8154 58.6556C28.9497 54.8977 30.6772 51.8773 34.0797 49.4666C34.5659 49.1214 35.0854 48.7891 35.6395 48.4683L58.1733 35.4907C62.3806 33.0659 67.6155 33.0621 71.8279 35.4856L113.044 59.209C120.247 63.3594 124.72 71.0938 124.72 79.3957V98.4755C124.72 103.357 122.091 107.907 117.859 110.353L71.8625 136.894C67.6257 139.338 62.364 139.34 58.1311 136.901L12.1447 110.399C7.9105 107.96 5.27963 103.408 5.27963 98.5215V81.244C5.33721 81.3245 5.40631 81.3974 5.4639 81.4779C5.99365 82.2065 6.54772 82.9197 7.14401 83.5985C7.18752 83.6483 7.23487 83.693 7.27709 83.7416C7.85419 84.3884 8.46584 85.0045 9.10181 85.5989C9.22081 85.7113 9.33853 85.8264 9.4601 85.9376C10.1217 86.5332 10.8126 87.0982 11.5331 87.635C11.6776 87.7424 11.8261 87.8459 11.9732 87.9508C12.7295 88.4927 13.5036 89.0104 14.3187 89.4782L30.8435 98.9944L30.8256 99.0226L55.655 113.327C58.5777 115.012 61.8522 115.853 65.1267 115.853C68.4037 115.853 71.6795 115.009 74.5996 113.322L97.1385 100.321C103.187 96.8253 106.458 91.7048 106.597 85.3931C106.583 84.7872 106.531 84.1967 106.458 83.6112C106.446 83.5167 106.436 83.4195 106.423 83.3236C106.345 82.7715 106.236 82.2282 106.106 81.6939C106.079 81.5878 106.05 81.483 106.023 81.3782C105.878 80.8427 105.713 80.316 105.516 79.8035C105.49 79.737 105.461 79.6744 105.434 79.6066C105.235 79.1107 105.011 78.6224 104.76 78.1469C104.733 78.0932 104.709 78.0396 104.679 77.9859C104.416 77.4976 104.12 77.0234 103.804 76.5594C103.744 76.4699 103.684 76.3817 103.62 76.2948C103.3 75.8436 102.954 75.4039 102.583 74.977C102.517 74.899 102.446 74.8249 102.378 74.7495C101.984 74.3098 101.568 73.8803 101.119 73.4687C101.103 73.4534 101.085 73.4406 101.068 73.4252C100.623 73.0188 100.144 72.6302 99.6465 72.2518C99.5992 72.2148 99.5569 72.1751 99.507 72.1368L99.6862 72.0384L74.5983 57.5934L73.9802 57.2406H73.9534C68.2271 54.2368 61.2853 54.3544 55.6614 57.5934L35.8916 68.9847L35.6395 68.8403ZM58.172 81.8179L41.1763 72.0294L58.2987 62.1617C62.5099 59.7382 67.7422 59.7382 71.9572 62.1617L88.9669 71.954L88.9593 71.9579L89.0181 71.9924L71.8318 81.8231C69.723 83.0335 67.3621 83.6394 65.0025 83.6394C62.6391 83.6394 60.277 83.0322 58.172 81.8179Z" fill="url(#paint0_linear)"/>
<defs>
<linearGradient id="paint0_linear" x1="65" y1="143.007" x2="65" y2="43.5" gradientUnits="userSpaceOnUse">
<stop stop-color="#1EB4B4"/>
<stop offset="1" stop-color="#32C88C"/>
</linearGradient>
</defs>
</svg>
